# Blender v2.78 (sub 0) OBJ File: 'oak_tree_1.blend'
# www.blender.org
mtllib oak_tree_leaves_1.mtl
o Cylinder.002
v 0.508452 8.572563 -4.703591
v 2.041861 9.158155 -3.097998
v -0.044646 10.218725 -3.255698
v -1.018234 9.716266 -3.702619
v 0.440095 10.273197 -2.175628
v -1.839259 9.297109 -2.777642
v -0.380925 9.854048 -1.250642
v -0.047837 7.605271 -4.669052
v 1.291257 7.739994 -4.403694
v 0.247136 9.590042 -4.217006
v -0.898981 10.138475 -2.440989
v 1.473562 8.966654 -4.124316
v 1.666521 9.649813 -2.082932
v -2.021576 8.070455 -3.057004
v 1.148452 9.934239 -3.273270
v -1.313225 7.731495 -4.154665
v -1.644343 8.787312 -3.828456
v -1.441455 9.505624 -1.682028
v 0.836735 9.734828 -1.230564
v -0.693139 8.748674 -4.553671
v -1.902322 8.492666 -1.795370
v 2.311823 8.506414 -2.198306
v -1.001010 8.836876 -0.851617
v 0.338083 8.971598 -0.586258
v 2.192568 8.084204 -3.459941
v 1.603472 8.845373 -1.100645
v 1.816074 8.573360 -2.053241
v 5.078219 9.861263 -0.028373
v 0.941345 8.821431 -0.801793
v 5.247533 8.967955 1.223058
v 5.247533 8.967955 -1.279803
v 2.788166 10.510723 0.745045
v 4.203486 10.109344 -1.279799
v 4.646754 7.770588 -2.053241
v 3.231414 8.171974 -2.531249
v 2.957462 9.617414 1.996483
v 1.542137 10.018793 -0.028373
v 4.203487 10.109344 1.223053
v 2.788166 10.510723 -0.801790
v 3.914292 10.579891 -0.028373
v 5.690514 8.638047 -0.028373
v 4.202331 9.060102 -2.157443
v 1.794423 9.742977 -1.344198
v 1.794423 9.742977 1.287453
v 4.202331 9.060102 2.100697
v 2.957462 9.617414 -2.053229
v 0.941345 8.821431 0.745048
v 5.521483 7.522517 0.745048
v 1.816074 8.573360 1.996496
v 3.231414 8.171974 2.474503
v 5.521483 7.522517 -0.801793
v 4.646754 7.770588 1.996496
v 0.254182 11.385756 -0.807116
v 2.621354 10.770540 1.758466
v -0.599653 12.269898 2.459702
v -2.102614 12.004276 1.456160
v 0.148656 11.419188 3.896149
v -3.370056 10.676248 2.289216
v -1.118778 10.091162 4.729223
v -0.604580 10.111444 -1.587330
v 1.462623 10.058597 -1.130967
v -0.149220 12.280372 0.686553
v -1.918518 11.472038 3.439783
v 1.744053 11.399074 0.274370
v 2.041930 10.537889 3.483979
v -3.651505 9.335764 0.883903
v 1.242170 11.918756 2.194549
v -2.558001 9.835347 -0.817723
v -3.069158 10.916032 0.502232
v -2.755953 10.010531 3.876997
v 0.760963 9.920612 4.653421
v -1.600753 11.484590 -0.464031
v -3.467408 8.803525 2.867533
v 3.038103 9.164742 2.360691
v -2.076024 8.441913 4.375562
v -0.008822 8.389062 4.831925
v 2.854006 9.696982 0.377061
v 1.944600 8.665156 4.062316
v -2.655730 9.207904 -2.311717
v -0.745673 9.740407 0.338618
v -4.039720 10.505552 0.338618
v -5.211043 9.724158 -0.624157
v -3.394511 10.230601 1.896433
v -6.214101 8.454967 0.338618
v -4.397564 8.961415 2.859223
v -3.081276 7.727251 -2.777043
v -1.264718 8.233700 -2.182004
v -3.394511 10.230601 -1.219198
v -5.211043 9.724158 1.301392
v -1.458307 9.780865 -1.219203
v -1.458308 9.780865 1.896438
v -6.020529 6.907799 -0.624161
v -2.271805 10.543598 0.338618
v -4.897832 7.220802 -2.182004
v -5.746225 8.346286 -1.299364
v -5.746225 8.346286 1.976599
v -2.655730 9.207904 2.988952
v -4.397564 8.961415 -2.181988
v -6.020529 6.907799 1.301396
v -0.142022 8.546701 1.301396
v -4.897833 7.220802 2.859239
v -3.081276 7.727251 3.454278
v -0.142022 8.546701 -0.624161
v -1.264718 8.233699 2.859239
vt 0.0001 0.3470
vt 0.2188 0.3211
vt 0.1884 0.5000
vt 0.0001 0.6530
vt 0.2188 0.6789
vt 0.1812 0.0977
vt 0.1812 0.9023
vt 0.7787 0.9047
vt 0.5705 0.7972
vt 0.7076 0.6681
vt 0.9632 0.6542
vt 0.7940 0.5000
vt 0.9632 0.3458
vt 0.7076 0.3319
vt 0.7787 0.0953
vt 0.5705 0.2028
vt 0.6190 0.5000
vt 0.5138 0.3609
vt 0.4664 0.5000
vt 0.4796 0.9999
vt 0.3815 0.7667
vt 0.4796 0.0001
vt 0.3815 0.2333
vt 0.3481 0.4157
vt 0.3481 0.5843
vt 0.5138 0.6391
vt 0.2131 0.3823
vt 0.3397 0.2548
vt 0.3689 0.4329
vt 0.3227 0.7196
vt 0.2406 0.5598
vt 0.4190 0.5870
vt 0.6773 0.7196
vt 0.5000 0.7483
vt 0.5810 0.5870
vt 0.7869 0.3823
vt 0.7594 0.5598
vt 0.6311 0.4329
vt 0.5000 0.1738
vt 0.6603 0.2548
vt 0.5000 0.3376
vt 0.5000 0.4755
vt 0.0001 0.4756
vt 0.0957 0.1815
vt 0.3454 0.0001
vt 0.6546 0.0001
vt 0.0955 0.7692
vt 0.9999 0.4756
vt 0.9045 0.7692
vt 0.9043 0.1815
vt 0.6543 0.9510
vt 0.3457 0.9510
vt 0.0001 0.3470
vt 0.2188 0.3211
vt 0.1884 0.5000
vt 0.0001 0.6530
vt 0.2188 0.6789
vt 0.1812 0.0977
vt 0.1812 0.9023
vt 0.7787 0.9047
vt 0.5705 0.7972
vt 0.7076 0.6681
vt 0.9632 0.6542
vt 0.7940 0.5000
vt 0.9632 0.3458
vt 0.7076 0.3319
vt 0.7787 0.0953
vt 0.5705 0.2028
vt 0.6190 0.5000
vt 0.5138 0.3609
vt 0.4664 0.5000
vt 0.4796 0.9999
vt 0.3815 0.7667
vt 0.4796 0.0001
vt 0.3815 0.2333
vt 0.3481 0.4157
vt 0.3481 0.5843
vt 0.5138 0.6391
vt 0.3469 0.9632
vt 0.3210 0.7445
vt 0.4999 0.7749
vt 0.6528 0.9633
vt 0.6788 0.7446
vt 0.0976 0.7820
vt 0.9022 0.7822
vt 0.9048 0.1848
vt 0.7972 0.3929
vt 0.6682 0.2558
vt 0.6544 0.0002
vt 0.5001 0.1693
vt 0.3459 0.0001
vt 0.3320 0.2557
vt 0.0954 0.1845
vt 0.2028 0.3927
vt 0.5000 0.3443
vt 0.3609 0.4495
vt 0.5000 0.4970
vt 0.9999 0.4839
vt 0.7667 0.5820
vt 0.0001 0.4836
vt 0.2333 0.5818
vt 0.4156 0.6152
vt 0.5843 0.6153
vt 0.6391 0.4496
vn -0.9115 0.2715 0.3088
vn -0.6854 0.5829 0.4364
vn -0.8686 0.4887 -0.0814
vn -0.9644 0.0843 -0.2506
vn -0.7810 0.2445 -0.5746
vn -0.4795 0.4533 0.7514
vn -0.6242 -0.0589 -0.7790
vn 0.4941 0.0173 -0.8692
vn 0.1717 0.1882 -0.9670
vn 0.5899 0.3919 -0.7060
vn 0.8611 0.1819 -0.4747
vn 0.8393 0.4867 -0.2422
vn 0.9172 0.3804 0.1185
vn 0.6774 0.7018 0.2202
vn 0.6318 0.5050 0.5880
vn 0.3214 0.7183 0.6170
vn 0.4518 0.8322 -0.3212
vn 0.1604 0.9728 0.1672
vn -0.0381 0.9487 -0.3139
vn -0.1028 -0.0816 -0.9913
vn -0.3466 0.2510 -0.9038
vn 0.0706 0.5324 0.8435
vn -0.2028 0.7600 0.6174
vn -0.4137 0.9086 0.0566
vn -0.4680 0.7166 -0.5171
vn 0.0747 0.6695 -0.7390
vn 0.3879 0.3548 0.8506
vn 0.8055 0.3180 0.5000
vn 0.3884 0.7740 0.5000
vn -0.5741 0.6277 0.5257
vn -0.1094 0.5775 0.8090
vn -0.1771 0.9344 0.3090
vn -0.5741 0.6277 -0.5257
vn -0.6749 0.7379 0.0000
vn -0.1771 0.9344 -0.3090
vn 0.3879 0.3548 -0.8506
vn -0.1094 0.5775 -0.8090
vn 0.3884 0.7740 -0.5000
vn 0.9825 0.1862 0.0000
vn 0.8055 0.3180 -0.5000
vn 0.7378 0.6749 0.0000
vn 0.2728 0.9620 0.0000
vn 0.0456 0.2175 0.9750
vn 0.6239 0.0535 0.7797
vn 0.9480 -0.0384 0.3160
vn 0.9480 -0.0384 -0.3160
vn -0.4788 0.3663 0.7978
vn 0.0456 0.2175 -0.9750
vn -0.4788 0.3663 -0.7978
vn 0.6239 0.0535 -0.7797
vn -0.8362 0.4676 -0.2866
vn -0.8362 0.4676 0.2866
vn -0.9115 0.0558 0.4074
vn -0.6854 0.2449 0.6857
vn -0.8686 0.4524 0.2020
vn -0.9644 0.2087 -0.1623
vn -0.7810 0.5212 -0.3440
vn -0.4795 -0.0371 0.8767
vn -0.6242 0.3811 -0.6820
vn 0.4941 0.4945 -0.7150
vn 0.1717 0.6909 -0.7022
vn 0.5899 0.7166 -0.3721
vn 0.8611 0.4138 -0.2953
vn 0.8393 0.5395 0.0669
vn 0.9172 0.2517 0.3089
vn 0.6774 0.4635 0.5711
vn 0.6318 0.0963 0.7691
vn 0.3214 0.2581 0.9111
vn 0.4518 0.8712 0.1918
vn 0.1604 0.7186 0.6766
vn -0.0381 0.9642 0.2622
vn -0.1028 0.4794 -0.8715
vn -0.3466 0.7084 -0.6148
vn 0.0706 -0.0220 0.9973
vn -0.2028 0.2927 0.9344
vn -0.4137 0.7262 0.5490
vn -0.4680 0.8830 -0.0353
vn 0.0747 0.9663 -0.2463
vn -0.9527 -0.0676 0.2961
vn -0.8132 0.2285 0.5352
vn -0.9630 0.2693 0.0000
vn -0.9527 -0.0676 -0.2961
vn -0.8132 0.2285 -0.5352
vn -0.5836 0.0550 0.8101
vn -0.5836 0.0550 -0.8101
vn 0.4801 0.4176 -0.7714
vn 0.1258 0.5301 -0.8385
vn 0.4774 0.7291 -0.4902
vn 0.7910 0.5250 -0.3140
vn 0.6915 0.7223 0.0000
vn 0.7910 0.5250 0.3140
vn 0.4774 0.7291 0.4902
vn 0.4801 0.4176 0.7714
vn 0.1258 0.5301 0.8385
vn 0.2302 0.9731 0.0000
vn -0.0908 0.8727 0.4797
vn -0.2734 0.9619 0.0000
vn -0.0717 0.2266 -0.9713
vn -0.3920 0.4448 -0.8053
vn -0.0717 0.2266 0.9713
vn -0.3920 0.4448 0.8053
vn -0.6295 0.7152 0.3037
vn -0.6295 0.7152 -0.3037
vn -0.0908 0.8727 -0.4797
usemtl None
s 1
f 21/1/1 18/2/2 6/3/3
f 14/4/4 21/1/1 6/3/3
f 14/4/4 6/3/3 17/5/5
f 21/1/1 23/6/6 18/2/2
f 16/7/7 14/4/4 17/5/5
f 9/8/8 1/9/9 12/10/10
f 25/11/11 9/8/8 12/10/10
f 25/11/11 12/10/10 2/12/12
f 22/13/13 2/12/12 13/14/14
f 26/15/15 22/13/13 13/14/14
f 26/15/15 13/14/14 19/16/16
f 13/14/14 2/12/12 15/17/17
f 5/18/18 13/14/14 15/17/17
f 5/18/18 15/17/17 3/19/19
f 9/8/8 8/20/20 1/9/9
f 16/7/7 17/5/5 20/21/21
f 8/20/20 16/7/7 20/21/21
f 8/20/20 20/21/21 1/9/9
f 24/22/22 19/16/16 7/23/23
f 23/6/6 24/22/22 7/23/23
f 23/6/6 7/23/23 18/2/2
f 22/13/13 25/11/11 2/12/12
f 24/22/22 26/15/15 19/16/16
f 7/23/23 19/16/16 5/18/18
f 11/24/24 7/23/23 5/18/18
f 11/24/24 5/18/18 3/19/19
f 6/3/3 18/2/2 11/24/24
f 4/25/25 6/3/3 11/24/24
f 4/25/25 11/24/24 3/19/19
f 20/21/21 17/5/5 4/25/25
f 10/26/26 20/21/21 4/25/25
f 10/26/26 4/25/25 3/19/19
f 12/10/10 1/9/9 10/26/26
f 15/17/17 12/10/10 10/26/26
f 15/17/17 10/26/26 3/19/19
f 2/12/12 12/10/10 15/17/17
f 1/9/9 20/21/21 10/26/26
f 17/5/5 6/3/3 4/25/25
f 18/2/2 7/23/23 11/24/24
f 19/16/16 13/14/14 5/18/18
f 45/27/27 30/28/28 38/29/29
f 44/30/30 36/31/31 32/32/32
f 43/33/33 37/34/34 39/35/35
f 42/36/36 46/37/37 33/38/38
f 41/39/39 31/40/40 28/41/41
f 28/41/41 33/38/38 40/42/42
f 28/41/41 31/40/40 33/38/38
f 31/40/40 42/36/36 33/38/38
f 33/38/38 39/35/35 40/42/42
f 33/38/38 46/37/37 39/35/35
f 46/37/37 43/33/33 39/35/35
f 39/35/35 32/32/32 40/42/42
f 39/35/35 37/34/34 32/32/32
f 37/34/34 44/30/30 32/32/32
f 32/32/32 38/29/29 40/42/42
f 32/32/32 36/31/31 38/29/29
f 36/31/31 45/27/27 38/29/29
f 50/43/43 52/44/44 45/27/27
f 48/45/45 51/46/46 41/39/39
f 49/47/47 36/31/31 44/30/30
f 49/47/47 50/43/43 36/31/31
f 50/43/43 45/27/27 36/31/31
f 35/48/48 46/37/37 42/36/36
f 35/48/48 27/49/49 46/37/37
f 27/49/49 43/33/33 46/37/37
f 34/50/50 35/48/48 42/36/36
f 38/29/29 28/41/41 40/42/42
f 38/29/29 30/28/28 28/41/41
f 30/28/28 41/39/39 28/41/41
f 52/44/44 30/28/28 45/27/27
f 52/44/44 48/45/45 30/28/28
f 48/45/45 41/39/39 30/28/28
f 51/46/46 31/40/40 41/39/39
f 51/46/46 34/50/50 31/40/40
f 34/50/50 42/36/36 31/40/40
f 27/49/49 29/51/51 43/33/33
f 47/52/52 49/47/47 44/30/30
f 29/51/51 37/34/34 43/33/33
f 29/51/51 47/52/52 37/34/34
f 47/52/52 44/30/30 37/34/34
f 73/53/53 70/54/54 58/55/55
f 66/56/56 73/53/53 58/55/55
f 66/56/56 58/55/55 69/57/57
f 73/53/53 75/58/58 70/54/54
f 68/59/59 66/56/56 69/57/57
f 61/60/60 53/61/61 64/62/62
f 77/63/63 61/60/60 64/62/62
f 77/63/63 64/62/62 54/64/64
f 74/65/65 54/64/64 65/66/66
f 78/67/67 74/65/65 65/66/66
f 78/67/67 65/66/66 71/68/68
f 65/66/66 54/64/64 67/69/69
f 57/70/70 65/66/66 67/69/69
f 57/70/70 67/69/69 55/71/71
f 61/60/60 60/72/72 53/61/61
f 68/59/59 69/57/57 72/73/73
f 60/72/72 68/59/59 72/73/73
f 60/72/72 72/73/73 53/61/61
f 76/74/74 71/68/68 59/75/75
f 75/58/58 76/74/74 59/75/75
f 75/58/58 59/75/75 70/54/54
f 74/65/65 77/63/63 54/64/64
f 76/74/74 78/67/67 71/68/68
f 59/75/75 71/68/68 57/70/70
f 63/76/76 59/75/75 57/70/70
f 63/76/76 57/70/70 55/71/71
f 58/55/55 70/54/54 63/76/76
f 56/77/77 58/55/55 63/76/76
f 56/77/77 63/76/76 55/71/71
f 72/73/73 69/57/57 56/77/77
f 62/78/78 72/73/73 56/77/77
f 62/78/78 56/77/77 55/71/71
f 64/62/62 53/61/61 62/78/78
f 67/69/69 64/62/62 62/78/78
f 67/69/69 62/78/78 55/71/71
f 54/64/64 64/62/62 67/69/69
f 53/61/61 72/73/73 62/78/78
f 69/57/57 58/55/55 56/77/77
f 70/54/54 59/75/75 63/76/76
f 71/68/68 65/66/66 57/70/70
f 99/79/79 96/80/80 84/81/81
f 92/82/82 99/79/79 84/81/81
f 92/82/82 84/81/81 95/83/83
f 99/79/79 101/84/84 96/80/80
f 94/85/85 92/82/82 95/83/83
f 87/86/86 79/87/87 90/88/88
f 103/89/89 87/86/86 90/88/88
f 103/89/89 90/88/88 80/90/90
f 100/91/91 80/90/90 91/92/92
f 104/93/93 100/91/91 91/92/92
f 104/93/93 91/92/92 97/94/94
f 91/92/92 80/90/90 93/95/95
f 83/96/96 91/92/92 93/95/95
f 83/96/96 93/95/95 81/97/97
f 87/86/86 86/98/98 79/87/87
f 94/85/85 95/83/83 98/99/99
f 86/98/98 94/85/85 98/99/99
f 86/98/98 98/99/99 79/87/87
f 102/100/100 97/94/94 85/101/101
f 101/84/84 102/100/100 85/101/101
f 101/84/84 85/101/101 96/80/80
f 100/91/91 103/89/89 80/90/90
f 102/100/100 104/93/93 97/94/94
f 85/101/101 97/94/94 83/96/96
f 89/102/102 85/101/101 83/96/96
f 89/102/102 83/96/96 81/97/97
f 84/81/81 96/80/80 89/102/102
f 82/103/103 84/81/81 89/102/102
f 82/103/103 89/102/102 81/97/97
f 98/99/99 95/83/83 82/103/103
f 88/104/104 98/99/99 82/103/103
f 88/104/104 82/103/103 81/97/97
f 90/88/88 79/87/87 88/104/104
f 93/95/95 90/88/88 88/104/104
f 93/95/95 88/104/104 81/97/97
f 80/90/90 90/88/88 93/95/95
f 79/87/87 98/99/99 88/104/104
f 95/83/83 84/81/81 82/103/103
f 96/80/80 85/101/101 89/102/102
f 97/94/94 91/92/92 83/96/96
