# Blender v2.78 (sub 0) OBJ File: ''
# www.blender.org
mtllib grass_bill.mtl
o Plane
v -0.500000 0.000000 0.100000
v 0.500000 0.000000 0.100000
v -0.500000 1.000000 0.100000
v 0.500000 1.000000 0.100000
v 0.150000 0.000000 -0.533013
v -0.350000 0.000000 0.333013
v 0.150000 1.000000 -0.533013
v -0.350000 1.000000 0.333013
v 0.350000 0.000000 0.333013
v -0.150000 0.000000 -0.533013
v 0.350000 1.000000 0.333013
v -0.150000 1.000000 -0.533013
vt 0.9999 0.9999
vt 0.0001 0.0001
vt 0.0001 0.9999
vt 0.9999 0.9999
vt 0.0001 0.0001
vt 0.0001 0.9999
vt 0.9999 0.9999
vt 0.0001 0.0001
vt 0.0001 0.9999
vt 0.9999 0.0001
vt 0.9999 0.0001
vt 0.9999 0.0001
vn 0.0000 0.0000 1.0000
vn -0.8660 0.0000 -0.5000
vn 0.8660 0.0000 -0.5000
usemtl None
s off
f 2/1/1 3/2/1 1/3/1
f 6/4/2 7/5/2 5/6/2
f 10/7/3 11/8/3 9/9/3
f 2/1/1 4/10/1 3/2/1
f 6/4/2 8/11/2 7/5/2
f 10/7/3 12/12/3 11/8/3
